/* XPM */
static char * hyperbola_xpm[] = {
"48 48 407 2",
"  	c #FFFFFF",
". 	c #F9F9F9",
"+ 	c #D9D9D9",
"@ 	c #A6A6A6",
"# 	c #707070",
"$ 	c #4B4B4B",
"% 	c #222222",
"& 	c #0D0D0D",
"* 	c #FBFBFB",
"= 	c #E8E8E8",
"- 	c #BFBFBF",
"; 	c #959595",
"> 	c #727272",
", 	c #565656",
"' 	c #333333",
") 	c #242424",
"! 	c #535555",
"~ 	c #717271",
"{ 	c #E3E3E3",
"] 	c #949494",
"^ 	c #505050",
"/ 	c #BBBBBB",
"( 	c #CECECE",
"_ 	c #DCDCDC",
": 	c #DDDCDD",
"< 	c #CBCDCB",
"[ 	c #B6B9B6",
"} 	c #6F6F6F",
"| 	c #FEFEFE",
"1 	c #DEDEDE",
"2 	c #ACACAC",
"3 	c #818181",
"4 	c #8A8A8A",
"5 	c #B1B1B1",
"6 	c #E5E5E5",
"7 	c #F1F8F3",
"8 	c #D4DDD6",
"9 	c #9FAAA4",
"0 	c #78827C",
"a 	c #7B7E7C",
"b 	c #7F7F7F",
"c 	c #B3B3B3",
"d 	c #F7F7F7",
"e 	c #FDFDFD",
"f 	c #F6FAF7",
"g 	c #EEF7F0",
"h 	c #E6F6EB",
"i 	c #E4F7E8",
"j 	c #E5FFEC",
"k 	c #CBE2D1",
"l 	c #9AA79E",
"m 	c #777C79",
"n 	c #848484",
"o 	c #F0F0F0",
"p 	c #FDFFFD",
"q 	c #F7FBF7",
"r 	c #F0F7F1",
"s 	c #E6F3E9",
"t 	c #DCEEE0",
"u 	c #D3EBDA",
"v 	c #C9E7D1",
"w 	c #BEDFC5",
"x 	c #BADAC2",
"y 	c #68776C",
"z 	c #969696",
"A 	c #777777",
"B 	c #B6B6B6",
"C 	c #FDFEFD",
"D 	c #F8FBF8",
"E 	c #EEF7EF",
"F 	c #DBEDE0",
"G 	c #CFE7D6",
"H 	c #C6E3CD",
"I 	c #B9DCC2",
"J 	c #AFDCBA",
"K 	c #B7E9C3",
"L 	c #7E9B85",
"M 	c #69706C",
"N 	c #949595",
"O 	c #737373",
"P 	c #BABABA",
"Q 	c #F6FBF7",
"R 	c #E4F2E7",
"S 	c #DBEDDF",
"T 	c #D0E7D6",
"U 	c #C2E1CC",
"V 	c #B9DCC1",
"W 	c #ACD6B5",
"X 	c #9FD2AB",
"Y 	c #98D2A6",
"Z 	c #91BC9C",
"` 	c #99A99D",
" .	c #6C6F6D",
"..	c #CFCFCF",
"+.	c #F0F7F0",
"@.	c #DBEEE0",
"#.	c #D1E9D7",
"$.	c #C6E3CC",
"%.	c #AED7B7",
"&.	c #A0D1AC",
"*.	c #93CCA1",
"=.	c #8BC99A",
"-.	c #92C9A1",
";.	c #8CAE96",
">.	c #494F4A",
",.	c #323232",
"'.	c #E6F3E8",
").	c #DBEEDF",
"!.	c #D0E8D6",
"~.	c #B9DDC2",
"{.	c #ACD5B6",
"].	c #93CBA1",
"^.	c #86C596",
"/.	c #7DC08D",
"(.	c #85CD98",
"_.	c #75A983",
":.	c #202923",
"<.	c #DDDDDD",
"[.	c #EEF6F0",
"}.	c #E4F2E6",
"|.	c #CFE8D5",
"1.	c #C3E2CB",
"2.	c #ACD6B7",
"3.	c #9ECFAB",
"4.	c #93CBA2",
"5.	c #86C597",
"6.	c #7BBE8C",
"7.	c #71BA83",
"8.	c #74C689",
"9.	c #5A9D6B",
"0.	c #0D1910",
"a.	c #DFDDDF",
"b.	c #EFF7F1",
"c.	c #E5F2E9",
"d.	c #D1EAD7",
"e.	c #C5E3CD",
"f.	c #B8DCC2",
"g.	c #AED7B8",
"h.	c #A0D1AD",
"i.	c #8AC698",
"j.	c #7CC08E",
"k.	c #71BA84",
"l.	c #69B57C",
"m.	c #6CC281",
"n.	c #579A67",
"o.	c #0C180F",
"p.	c #EEF6F1",
"q.	c #ABD6B7",
"r.	c #7DBF8E",
"s.	c #71B984",
"t.	c #66B47B",
"u.	c #5FB174",
"v.	c #6AC07F",
"w.	c #63A274",
"x.	c #1C2720",
"y.	c #555555",
"z.	c #F3F8F6",
"A.	c #E6F5EC",
"B.	c #C2E1CB",
"C.	c #9ED0AC",
"D.	c #66B37A",
"E.	c #5CB073",
"F.	c #57AF6D",
"G.	c #6DB980",
"H.	c #7CA687",
"I.	c #444D47",
"J.	c #A2A2A2",
"K.	c #717171",
"L.	c #D3DCD5",
"M.	c #E2F6E9",
"N.	c #D3EAD9",
"O.	c #C5E3CC",
"P.	c #B8DCC1",
"Q.	c #A1D0AD",
"R.	c #94CAA2",
"S.	c #72BA83",
"T.	c #5FB073",
"U.	c #57AD6D",
"V.	c #52AF6A",
"W.	c #69A87A",
"X.	c #8CA493",
"Y.	c #6A6E6B",
"Z.	c #EBEBEB",
"`.	c #939393",
" +	c #414141",
".+	c #3D3D3D",
"++	c #A7A7A7",
"@+	c #898989",
"#+	c #8B8C8B",
"$+	c #737573",
"%+	c #A1ABA4",
"&+	c #E7FFEC",
"*+	c #C9E8D2",
"=+	c #ABD6B6",
"-+	c #A1D1AD",
";+	c #94CBA2",
">+	c #87C497",
",+	c #7DBF8D",
"'+	c #72B983",
")+	c #67B47A",
"!+	c #5FB173",
"~+	c #56AC6B",
"{+	c #51AC68",
"]+	c #62BD79",
"^+	c #558662",
"/+	c #646E67",
"(+	c #949594",
"_+	c #A0A0A0",
":+	c #C2C2C2",
"<+	c #8F8F8F",
"[+	c #5B5B5B",
"}+	c #353535",
"|+	c #000000",
"1+	c #080808",
"2+	c #2F2F2F",
"3+	c #535353",
"4+	c #787878",
"5+	c #464646",
"6+	c #747C75",
"7+	c #CBE3D2",
"8+	c #BEDFC7",
"9+	c #B0DABB",
"0+	c #9FD1AC",
"a+	c #95CCA2",
"b+	c #87C597",
"c+	c #5DB073",
"d+	c #56AE6C",
"e+	c #51AE68",
"f+	c #58AE6C",
"g+	c #72B884",
"h+	c #4E6955",
"i+	c #4E4E4E",
"j+	c #B8B8B8",
"k+	c #A4A4A4",
"l+	c #7A7A7A",
"m+	c #181818",
"n+	c #010101",
"o+	c #070707",
"p+	c #232323",
"q+	c #404040",
"r+	c #5D5F5D",
"s+	c #91A095",
"t+	c #B8D9BF",
"u+	c #B5E7C3",
"v+	c #99D1A7",
"w+	c #8BC79A",
"x+	c #7EBF8E",
"y+	c #72BA84",
"z+	c #68B47C",
"A+	c #5EB074",
"B+	c #52AF69",
"C+	c #5CBD76",
"D+	c #72B683",
"E+	c #72947A",
"F+	c #6C736F",
"G+	c #8C8C8C",
"H+	c #454545",
"I+	c #0B0B0B",
"J+	c #040404",
"K+	c #141414",
"L+	c #373737",
"M+	c #4D5350",
"N+	c #637467",
"O+	c #7D9883",
"P+	c #94BD9E",
"Q+	c #92C9A0",
"R+	c #85CC98",
"S+	c #75C68A",
"T+	c #6AC281",
"U+	c #6AC181",
"V+	c #6DB981",
"W+	c #6BAA7C",
"X+	c #548660",
"Y+	c #4E6C55",
"Z+	c #6A736C",
"`+	c #808080",
" @	c #626262",
".@	c #343434",
"+@	c #090909",
"@@	c #515151",
"#@	c #0F0F0F",
"$@	c #030303",
"%@	c #2A2A2A",
"&@	c #555C57",
"*@	c #98AA9D",
"=@	c #8EAF97",
"-@	c #75AB83",
";@	c #5C9E6D",
">@	c #549D66",
",@	c #63A374",
"'@	c #7CA787",
")@	c #8CA492",
"!@	c #626964",
"~@	c #4A4A4A",
"{@	c #6A6A6A",
"]@	c #191919",
"^@	c #1C1C1C",
"/@	c #3A3A3A",
"(@	c #D6D6D6",
"_@	c #757575",
":@	c #484848",
"<@	c #161616",
"[@	c #292929",
"}@	c #626562",
"|@	c #484F49",
"1@	c #1E2822",
"2@	c #0C190F",
"3@	c #1B261E",
"4@	c #464D47",
"5@	c #8E8F8F",
"6@	c #8E8E8E",
"7@	c #1D1D1D",
"8@	c #2B2B2B",
"9@	c #5E5E5E",
"0@	c #979797",
"a@	c #C8C8C8",
"b@	c #F4F4F4",
"c@	c #DADADA",
"d@	c #C1C1C1",
"e@	c #151515",
"f@	c #2E2E2E",
"g@	c #474747",
"h@	c #202020",
"i@	c #1F1F1F",
"j@	c #9E9E9E",
"k@	c #D0D0D0",
"l@	c #E9E9E9",
"m@	c #FCFCFC",
"n@	c #E4E4E4",
"o@	c #1A1A1A",
"p@	c #111111",
"q@	c #5D5D5D",
"r@	c #E6E6E6",
"s@	c #060606",
"t@	c #7E7E7E",
"u@	c #C9C9C9",
"v@	c #F6F6F6",
"w@	c #E7E7E7",
"x@	c #434343",
"y@	c #212121",
"z@	c #B2B2B2",
"A@	c #585858",
"B@	c #767676",
"C@	c #F2F2F2",
"D@	c #1B1B1B",
"E@	c #5F5F5F",
"F@	c #7C7C7C",
"G@	c #4D4D4D",
"H@	c #C5C5C5",
"I@	c #525252",
"J@	c #ECECEC",
"K@	c #797979",
"L@	c #424242",
"M@	c #F3F3F3",
"N@	c #F8F8F8",
"O@	c #AAAAAA",
"P@	c #0C0C0C",
"Q@	c #616161",
"R@	c #1E1E1E",
"S@	c #050505",
"T@	c #686868",
"U@	c #EAEAEA",
"V@	c #CDCDCD",
"W@	c #666666",
"X@	c #101010",
"Y@	c #363636",
"Z@	c #4C4C4C",
"`@	c #262626",
" #	c #171717",
".#	c #6B6B6B",
"+#	c #131313",
"@#	c #919191",
"##	c #3E3E3E",
"$#	c #313131",
"%#	c #A3A3A3",
"&#	c #EFEFEF",
"*#	c #838383",
"=#	c #3B3B3B",
"-#	c #020202",
";#	c #A9A9A9",
">#	c #303030",
",#	c #2C2C2C",
"'#	c #888888",
")#	c #FAFAFA",
"!#	c #121212",
"~#	c #929292",
"{#	c #D8D8D8",
"]#	c #858585",
"^#	c #0A0A0A",
"/#	c #656565",
"(#	c #F5F5F5",
"_#	c #393939",
":#	c #9C9C9C",
"<#	c #B7B7B7",
"[#	c #2D2D2D",
"}#	c #575757",
"|#	c #828282",
"1#	c #272727",
"2#	c #6C6C6C",
"3#	c #C7C7C7",
"4#	c #DFDFDF",
"5#	c #A1A1A1",
"6#	c #E1E1E1",
"7#	c #252525",
"8#	c #D4D4D4",
"9#	c #E0E0E0",
"0#	c #9F9F9F",
"                                                                                                ",
"                                                                                                ",
"                                                                                                ",
"                                                                                                ",
"                                  . + @ # $ % & & % $ # @ + .                                   ",
"                                * = - ; > , ' ) ) ' ! ~ ; - = *                                 ",
"                                { ] ^ # / ( _ _ : _ < [ } ^ ] {                                 ",
"                            | 1 2 3 4 5 6           7 8 9 0 a 2 1 |                             ",
"                          . = ; b c d         e f g h i j k l m ; = .                           ",
"                          + - ^ n o e       p q r s t u v w x y ^ - +                           ",
"                          @ z A B         C D E s F G H I J K L M N @                           ",
"                          # O P {       C Q g R S T U V W X Y Z `  .#                           ",
"                          $ , ..*     p q +.s @.#.$.I %.&.*.=.-.;.>.$                           ",
"                          % ,._     e D E '.).!.H ~.{.&.].^./.(._.:.%                           ",
"                          & ) <.  C f [.}.).|.1.~.2.3.4.5.6.7.8.9.0.&                           ",
"                          & ) a.  f b.c.).d.e.f.g.h.4.i.j.k.l.m.n.o.&                           ",
"                          % ,._   p.s F |.$.~.q.&.].5.r.s.t.u.v.w.x.%                           ",
"                          $ y.< z.A.t G B.V 2.C.].^.6.s.D.E.F.G.H.I.$                           ",
"                  ; J.+ . # K.[ L.M.N.O.P.g.Q.R.i./.S.l.T.U.V.W.X.Y.#     Z.- `.;               ",
"                   +.+A ++@+#+$+%+&+*+P.=+-+;+>+,+'+)+!+~+{+]+^+/+(+_+<.:+<+[+}+ +              ",
"                  |+|+1+2+3+4+5+6+7+8+9+0+a+b+6.'+)+c+d+e+f+g+h+i+j+k+l+i+m+|+|+|+              ",
"                  |+|+n+o+1+p+q+r+s+t+u+v+w+x+y+z+A+F.B+C+D+E+F+l+G+H+& I+J+|+|+|+              ",
"                  o+|+|+|+|+J+K+L+M+N+O+P+Q+R+S+T+U+V+W+X+Y+Z+`+ @.@+@|+|+|+|+|+o+              ",
"                  @@) #@I+$@|+|+1+p+%@&@*@=@-@;@>@,@'@)@!@~@{@y.]@J+|+n+o+I+^@/@@@              ",
"                  (@5 _@:@<@|+|+|+& [@y.}@|@1@0.2@3@4@Y.5@6@[+7@|+|+|+o+8@9@0@a@(@              ",
"                    b@c@d@l+,.e@n+|+$@f@~@g@% & & % $ # @+ @h@|+|+o+i@, j@k@l@m@                ",
"                          n@_+[+o@|+|+p@q@( r@        r@0@%@s@|++@.@t@u@v@                      ",
"                            w@2 x@|+|+|+y@] z@        z@A@|+|+|+m+B@..e                         ",
"                            e C@4 D@J+|+#@E@F@        F@,.|+|+1+G@H@                            ",
"                                d@I@& |+1+.@i+        i+<@|+|+[@G+J@                            ",
"                                + K@K+|+$@<@f@        f@$@|+|+L@c M@                            ",
"                                N@O@^@|+|+|+P@        P@|+|+|+Q@n@*                             ",
"                                  B R@|+|+|+S@        S@|+|+|+T@o e                             ",
"                                U@`.m+|+|+J+D@        D@|+|+|+I@V@d                             ",
"                                V@W@X@|+S@) .+        .+P@|+|+Y@_+o                             ",
"                                ++.@1+|+P@Z@T@        T@`@|+|+ #.#1                             ",
"                            . (@T@o+n+|++#O @#        @###|+|+|+$#%#&#                          ",
"                          d u@*#8@|+|+|+=#z@(         ( B@& -#|+& I@;#l@m@                      ",
"                    * b@C@j+W@>#1+|+|+,#'#w@)#        )#/ @@!#|+$@e@:@~#{#d N@|                 ",
"                    w@5 ]###^#s@|+-#+#/#H@(#|         | { ] _#S@|+-#J+y@E@:#..d                 ",
"                  ; {@.+% 1+|+|+|+h@q@<#d |               + 6@/@o+n+|+$@!#[#}#|#;               ",
"                  D@|+|+|+|+|+J+1#2#<#o                   )#_ `.L@e@|+|+|+|+|+J+D@              ",
"                  J+|+|+|+|++@Y@`+3#&#                      | 4#5#9@D@|+|+|+|+|+J+              ",
"                  |+|+$@<@f@Q@;#6#. |                         | J@V@n ##7#^#|+|+|+              ",
"                  +#|+}+T@5#8#N@                                    l@<#4 Z@D@|++#              ",
"                  A `+/ 9#b@N@|                                     m@b@o ..0#> A               ",
"                  ; J.+ .                                                 Z.- `.;               ",
"                                                                                                "};
